<?xml version="1.0" encoding="UTF-8"?>
<svg version="1.1" viewBox="0 0 1024 1024" width="1024" height="1024" xmlns="http://www.w3.org/2000/svg">
<path transform="translate(512,19)" d="m0 0 2 3 28 122 26 114 25 109v5l11-6 38-24 24-15 19-12 24-15 19-12 14-9 2 1-24 38-15 24-12 19-15 24-12 19-15 24 6 2 328 75 18 4v2l-359 82h-3l15 24 12 19 15 24 12 19 15 24 5 9-5-2-48-30-19-12-24-15-19-12-4-2-23 101-27 118-26 114-7 29-2-4-29-127-27-118-25-110-1-3-18 11-19 12-24 15-57 36v-3l13-21 12-19 15-24 24-38 9-15-20-4-341-78v-2l131-30 228-52h2l-12-20-14-22-12-19-15-24-12-19-9-14 1-2 38 24 24 15 19 12 24 15 13 8 10-43 25-109 26-114zm-8 427-16 4-13 7-12 11-7 10-5 11-3 13v16l4 16 7 13 11 12 14 9 14 5 6 1h16l16-4 14-8 10-9 6-8 7-14 3-13v-16l-4-16-8-14-9-10-11-8-11-5-13-3z" fill="#454544"/>
<path transform="translate(476,75)" d="m0 0h3l-2 12-11 48-1 2-33 6-30 8-24 8-25 11-16 8-20 11-21 14-16 12-11 9-10 9-8 7-15 15-7 8-11 13-14 19-11 17-11 19-9 17-12 28-10 30-7 29-5 28-57 13h-5l3-29 6-33 8-30 9-27 10-24 12-25 11-20 12-19 12-17 10-13 11-13 7-8 9-10 20-20 8-7 13-11 20-15 24-16 19-11 23-12 20-9 24-9 21-7 32-8 36-6z" fill="#454544"/>
<path transform="translate(77,544)" d="m0 0 9 1 53 12 6 33 7 27 9 27 10 23 8 17 12 21 16 24 10 13 9 11 9 10 7 8 15 15 11 9 9 8 16 12 21 14 19 11 16 8 17 8 24 9 22 7 30 7 23 4 4 15 10 44v3l-22-2-36-6-32-8-30-10-26-11-25-12-23-13-24-16-16-12-10-8-14-12-13-12-17-17-7-8-12-14-15-20-16-24-11-19-12-23-9-20-11-29-9-31-6-27-4-26z" fill="#454544"/>
<path transform="translate(547,75)" d="m0 0 28 3 33 6 30 8 27 9 24 10 25 12 20 11 19 12 17 12 13 10 13 11 8 7 12 11 17 17 7 8 12 14 12 16 12 17 13 21 12 22 12 25 10 26 8 24 8 32 6 36 2 21-11-2-49-11-2-1-3-16-5-24-8-29-11-29-13-28-12-21-16-24-10-13-9-11-9-10-7-8-15-15-8-7-17-14-18-13-19-12-16-9-15-8-28-12-30-10-29-7-24-4-3-1-10-43-4-18z" fill="#454544"/>
<path transform="translate(944,544)" d="m0 0h3l-3 29-5 28-8 32-10 30-10 24-12 25-14 25-16 24-12 16-8 10-12 14-12 13-17 17-8 7-14 12-16 12-14 10-19 12-21 12-22 11-32 13-27 9-32 8-36 6-20 2-1-2 13-57 1-3 16-3 24-5 29-8 29-11 26-12 23-13 24-16 13-10 11-9 10-9 8-7 15-15 7-8 14-17 13-18 12-19 9-16 8-16 7-15 9-24 7-22 7-30 3-19 1-3 15-4z" fill="#454544"/>
</svg>
